<?xml version="1.0" encoding="utf-8"?>
<!-- Generator: Adobe Illustrator 23.0.0, SVG Export Plug-In . SVG Version: 6.00 Build 0)  -->
<svg version="1.1" id="Layer_1" xmlns="http://www.w3.org/2000/svg" xmlns:xlink="http://www.w3.org/1999/xlink" x="0px" y="0px"
	 viewBox="0 0 595.28 841.89" style="enable-background:new 0 0 595.28 841.89;" xml:space="preserve">
<style type="text/css">
	.st0{fill:none;stroke:#464748;stroke-width:2;stroke-miterlimit:10;}
	.st1{fill:#464748;}
</style>
<circle class="st0" cx="171.16" cy="347.89" r="17.46"/>
<g>
	<g>
		<g>
			<path class="st1" d="M171.16,335.18c-5.08,0-9.21,4.13-9.21,9.21c0,6.3,8.24,15.55,8.59,15.94c0.33,0.37,0.9,0.37,1.23,0
				c0.35-0.39,8.59-9.64,8.59-15.94C180.37,339.31,176.24,335.18,171.16,335.18z M171.16,349.02c-2.55,0-4.63-2.08-4.63-4.63
				s2.08-4.63,4.63-4.63c2.55,0,4.63,2.08,4.63,4.63C175.79,346.94,173.71,349.02,171.16,349.02z"/>
		</g>
	</g>
	<circle class="st1" cx="171.16" cy="344.38" r="2.9"/>
</g>
</svg>
