<?xml version="1.0" encoding="utf-8"?>
<!-- Generator: Adobe Illustrator 23.0.0, SVG Export Plug-In . SVG Version: 6.00 Build 0)  -->
<svg version="1.1" id="Layer_1" xmlns="http://www.w3.org/2000/svg" xmlns:xlink="http://www.w3.org/1999/xlink" x="0px" y="0px"
	 viewBox="0 0 595.28 841.89" style="enable-background:new 0 0 595.28 841.89;" xml:space="preserve">
<style type="text/css">
	.st0{fill:none;stroke:#464748;stroke-width:2;stroke-miterlimit:10;}
	.st1{fill:#F7941D;}
</style>
<circle class="st0" cx="171.12" cy="346.93" r="17.46"/>
<path class="st1" d="M181.69,345.95c-0.17-0.29-0.47-0.45-0.83-0.45c-0.68,0-1.49,0.27-2.12,0.7c-0.58,0.4-1.43,1.13-2.15,2.38
	c-0.13,0.23-0.35,0.39-0.59,0.43c0-0.05,0-0.12,0-0.17c0-0.13,0-0.27,0-0.44v-8.97c0-0.89-0.73-1.62-1.62-1.62s-1.62,0.73-1.62,1.62
	v6.28c0,0.11-0.09,0.2-0.2,0.2s-0.2-0.09-0.2-0.2v-9.12c0-0.89-0.73-1.62-1.62-1.62s-1.62,0.73-1.62,1.62v9.12
	c0,0.11-0.09,0.2-0.2,0.2s-0.2-0.09-0.2-0.2v-7.3c0-0.78-0.64-1.42-1.42-1.42s-1.42,0.64-1.42,1.42v8.11c0,0.11-0.09,0.2-0.2,0.2
	s-0.2-0.09-0.2-0.2v-5.07c0-0.78-0.64-1.42-1.42-1.42c-0.78,0-1.42,0.64-1.42,1.42l0,11.03c0.39,5.67,3.87,6.43,7.22,6.43
	c2.78,0,5.27-1.38,6.5-3.58c0.16-0.26,0.59-0.93,1.09-1.72c1.27-1.99,2.33-3.67,2.49-3.96c0.35-0.66,0.74-1.18,1.13-1.5
	c0.35-0.29,0.57-0.65,0.74-0.97C181.87,347,181.95,346.38,181.69,345.95z"/>
</svg>
