<?xml version="1.0" encoding="utf-8"?>
<!-- Generator: Adobe Illustrator 23.0.0, SVG Export Plug-In . SVG Version: 6.00 Build 0)  -->
<svg version="1.1" id="Layer_1" xmlns="http://www.w3.org/2000/svg" xmlns:xlink="http://www.w3.org/1999/xlink" x="0px" y="0px"
	 viewBox="0 0 595.28 841.89" style="enable-background:new 0 0 595.28 841.89;" xml:space="preserve">
<style type="text/css">
	.st0{fill:none;stroke:#464748;stroke-width:2;stroke-miterlimit:10;}
	.st1{fill:#464748;}
</style>
<circle class="st0" cx="171.16" cy="347.89" r="17.46"/>
<g>
	<polygon class="st1" points="178.28,336.75 171.52,336.75 171.52,342.58 181.93,342.58 	"/>
	<polygon class="st1" points="170.8,336.75 164.04,336.75 160.39,342.58 170.8,342.58 	"/>
	<path class="st1" d="M160.23,343.31v15.3h21.86v-15.3H160.23z M168.5,352.67c-0.07,0.07-0.16,0.11-0.26,0.11
		c-0.09,0-0.19-0.04-0.26-0.11c-0.14-0.14-0.14-0.37,0-0.52l1.09-1.09c0.03-0.03,0.07-0.06,0.12-0.08c0.09-0.04,0.19-0.04,0.28,0
		c0.04,0.02,0.08,0.05,0.12,0.08l1.09,1.09c0.14,0.14,0.14,0.37,0,0.52c-0.07,0.07-0.16,0.11-0.26,0.11c-0.09,0-0.19-0.04-0.26-0.11
		l-0.47-0.47v2.4c0,0.2-0.16,0.36-0.36,0.36c-0.2,0-0.36-0.16-0.36-0.36v-2.4L168.5,352.67z M174.07,356.42h-5.83
		c-0.2,0-0.36-0.16-0.36-0.36c0-0.2,0.16-0.36,0.36-0.36h5.83c0.2,0,0.36,0.16,0.36,0.36C174.44,356.26,174.27,356.42,174.07,356.42
		z M174.33,352.67c-0.07,0.07-0.16,0.11-0.26,0.11s-0.19-0.04-0.26-0.11l-0.47-0.47v2.4c0,0.2-0.16,0.36-0.36,0.36
		c-0.2,0-0.36-0.16-0.36-0.36v-2.4l-0.47,0.47c-0.07,0.07-0.16,0.11-0.26,0.11s-0.19-0.04-0.26-0.11c-0.14-0.14-0.14-0.37,0-0.52
		l1.09-1.09c0.03-0.03,0.07-0.06,0.12-0.08c0.09-0.04,0.19-0.04,0.28,0c0.04,0.02,0.08,0.05,0.12,0.08l1.09,1.09
		C174.47,352.3,174.47,352.53,174.33,352.67z M173.35,347.31h-4.37c-0.6,0-1.09-0.49-1.09-1.09c0-0.6,0.49-1.09,1.09-1.09h4.37
		c0.6,0,1.09,0.49,1.09,1.09C174.44,346.82,173.95,347.31,173.35,347.31z"/>
</g>
</svg>
