<?xml version="1.0" encoding="utf-8"?>
<!-- Generator: Adobe Illustrator 23.0.0, SVG Export Plug-In . SVG Version: 6.00 Build 0)  -->
<svg version="1.1" id="Layer_1" xmlns="http://www.w3.org/2000/svg" xmlns:xlink="http://www.w3.org/1999/xlink" x="0px" y="0px"
	 viewBox="0 0 595.28 841.89" style="enable-background:new 0 0 595.28 841.89;" xml:space="preserve">
<style type="text/css">
	.st0{fill:none;stroke:#464748;stroke-width:2;stroke-miterlimit:10;}
	.st1{fill:#EF4136;}
</style>
<circle class="st0" cx="171.12" cy="346.93" r="17.46"/>
<g>
	<path class="st1" d="M167.32,341.14v-5.22l-8.72,8.65l8.72,8.73v-5.22c0,0,7.63-1.89,12.88,6.94c0,0,1.31-6.74-4.56-11.62
		C175.65,343.39,173.05,340.96,167.32,341.14z"/>
	<path class="st1" d="M180.41,356.21l-0.58-0.98c-4.43-7.44-10.58-7.03-12.08-6.8v5.91l-9.77-9.78l9.77-9.69v5.82
		c5.52-0.04,8.08,2.28,8.19,2.38c5.98,4.97,4.7,11.95,4.69,12.02L180.41,356.21z M169.11,347.47c2.5,0,7.09,0.84,10.78,6.23
		c0.06-2.11-0.39-6.54-4.51-9.98c-0.04-0.04-2.59-2.33-8.04-2.16l-0.45,0.01v-4.63l-7.67,7.61l7.67,7.69v-4.52l0.33-0.08
		C167.25,347.64,167.97,347.47,169.11,347.47z"/>
</g>
</svg>
