<?xml version="1.0" encoding="utf-8"?>
<!-- Generator: Adobe Illustrator 23.0.0, SVG Export Plug-In . SVG Version: 6.00 Build 0)  -->
<svg version="1.1" id="Layer_1" xmlns="http://www.w3.org/2000/svg" xmlns:xlink="http://www.w3.org/1999/xlink" x="0px" y="0px"
	 viewBox="0 0 595.28 841.89" style="enable-background:new 0 0 595.28 841.89;" xml:space="preserve">
<style type="text/css">
	.st0{fill:none;stroke:#464748;stroke-width:2;stroke-miterlimit:10;}
	.st1{fill:#F7941D;}
</style>
<circle class="st0" cx="172.07" cy="347.89" r="17.46"/>
<g>
	<g>
		<path class="st1" d="M183.2,353.77l-9.94-16.49c-0.25-0.42-0.7-0.67-1.19-0.67c-0.49,0-0.94,0.25-1.19,0.67l-9.94,16.49
			c-0.26,0.43-0.27,0.96-0.02,1.4c0.25,0.44,0.71,0.71,1.21,0.71h19.88c0.5,0,0.96-0.27,1.21-0.71
			C183.47,354.73,183.46,354.2,183.2,353.77z M172.08,342.31c0.57,0,1.05,0.32,1.05,0.89c0,1.74-0.2,4.25-0.2,5.99
			c0,0.45-0.5,0.64-0.85,0.64c-0.47,0-0.86-0.19-0.86-0.64c0-1.74-0.2-4.25-0.2-5.99C171.01,342.63,171.48,342.31,172.08,342.31z
			 M172.09,353.1c-0.64,0-1.13-0.53-1.13-1.13c0-0.61,0.48-1.13,1.13-1.13c0.6,0,1.11,0.51,1.11,1.13
			C173.21,352.58,172.69,353.1,172.09,353.1z"/>
	</g>
</g>
</svg>
